<mxfile host="app.diagrams.net" agent="Mozilla/5.0 (Windows NT 10.0; Win64; x64) AppleWebKit/537.36 (KHTML, like Gecko) Chrome/134.0.0.0 Safari/537.36" version="26.2.6">
  <diagram name="Page-1" id="f-FxEDsjXaTO7uWCLjNJ">
    <mxGraphModel dx="1108" dy="1655" grid="1" gridSize="10" guides="1" tooltips="1" connect="1" arrows="1" fold="1" page="1" pageScale="1" pageWidth="850" pageHeight="1100" math="0" shadow="0">
      <root>
        <mxCell id="0" />
        <mxCell id="1" parent="0" />
        <mxCell id="lwLpcTtRz4geDCTmb4do-40" value="" style="html=1;align=center;verticalAlign=top;rounded=1;absoluteArcSize=1;arcSize=20;dashed=1;whiteSpace=wrap;" vertex="1" parent="1">
          <mxGeometry x="450" y="30" width="400" height="338" as="geometry" />
        </mxCell>
        <mxCell id="lwLpcTtRz4geDCTmb4do-39" value="" style="html=1;align=center;verticalAlign=top;rounded=1;absoluteArcSize=1;arcSize=20;dashed=1;whiteSpace=wrap;" vertex="1" parent="1">
          <mxGeometry x="40" y="30" width="400" height="340" as="geometry" />
        </mxCell>
        <mxCell id="lwLpcTtRz4geDCTmb4do-11" value="" style="shape=umlActor;verticalLabelPosition=bottom;verticalAlign=top;html=1;outlineConnect=0;fillColor=light-dark(#FFFFFF,#001933);strokeColor=light-dark(#000000,#00FF80);" vertex="1" parent="1">
          <mxGeometry x="750" y="80" width="30" height="50" as="geometry" />
        </mxCell>
        <mxCell id="lwLpcTtRz4geDCTmb4do-12" value="" style="shape=umlActor;verticalLabelPosition=bottom;verticalAlign=top;html=1;outlineConnect=0;fillColor=default;strokeColor=light-dark(#000000,#00FF80);" vertex="1" parent="1">
          <mxGeometry x="70" y="90" width="30" height="40" as="geometry" />
        </mxCell>
        <mxCell id="lwLpcTtRz4geDCTmb4do-15" value="&lt;b&gt;Us-east-1(USA)&lt;/b&gt;" style="text;html=1;align=center;verticalAlign=middle;resizable=0;points=[];autosize=1;strokeColor=none;fillColor=light-dark(transparent,#474747);" vertex="1" parent="1">
          <mxGeometry x="50" y="160" width="110" height="30" as="geometry" />
        </mxCell>
        <mxCell id="lwLpcTtRz4geDCTmb4do-17" value="&lt;b&gt;Mumbai(IN)&lt;/b&gt;" style="text;html=1;align=center;verticalAlign=middle;resizable=0;points=[];autosize=1;strokeColor=none;fillColor=light-dark(transparent,#474747);" vertex="1" parent="1">
          <mxGeometry x="710" y="140" width="90" height="30" as="geometry" />
        </mxCell>
        <mxCell id="lwLpcTtRz4geDCTmb4do-19" value="&lt;b&gt;Server&lt;/b&gt;" style="whiteSpace=wrap;html=1;aspect=fixed;strokeColor=light-dark(#000000,#66B2FF);fillColor=light-dark(#FFFFFF,#00994D);" vertex="1" parent="1">
          <mxGeometry x="230" y="80" width="110" height="110" as="geometry" />
        </mxCell>
        <mxCell id="lwLpcTtRz4geDCTmb4do-24" value="" style="endArrow=classic;html=1;rounded=0;entryX=0.006;entryY=0.406;entryDx=0;entryDy=0;entryPerimeter=0;" edge="1" parent="1" target="lwLpcTtRz4geDCTmb4do-19">
          <mxGeometry width="50" height="50" relative="1" as="geometry">
            <mxPoint x="120" y="110" as="sourcePoint" />
            <mxPoint x="216.70000000000005" y="150.67999999999995" as="targetPoint" />
            <Array as="points">
              <mxPoint x="110" y="110" />
              <mxPoint x="120" y="110" />
            </Array>
          </mxGeometry>
        </mxCell>
        <mxCell id="lwLpcTtRz4geDCTmb4do-25" value="" style="endArrow=classic;html=1;rounded=0;entryX=1.03;entryY=0.339;entryDx=0;entryDy=0;entryPerimeter=0;" edge="1" parent="1" target="lwLpcTtRz4geDCTmb4do-34">
          <mxGeometry width="50" height="50" relative="1" as="geometry">
            <mxPoint x="740" y="110" as="sourcePoint" />
            <mxPoint x="680" y="120" as="targetPoint" />
          </mxGeometry>
        </mxCell>
        <mxCell id="lwLpcTtRz4geDCTmb4do-26" value="" style="endArrow=classic;html=1;rounded=0;exitX=0.4;exitY=0.982;exitDx=0;exitDy=0;exitPerimeter=0;" edge="1" parent="1" source="lwLpcTtRz4geDCTmb4do-19">
          <mxGeometry width="50" height="50" relative="1" as="geometry">
            <mxPoint x="280" y="200" as="sourcePoint" />
            <mxPoint x="275" y="270" as="targetPoint" />
            <Array as="points" />
          </mxGeometry>
        </mxCell>
        <mxCell id="lwLpcTtRz4geDCTmb4do-27" value="" style="outlineConnect=0;dashed=0;verticalLabelPosition=bottom;verticalAlign=top;align=center;html=1;shape=mxgraph.aws3.snapshot;fillColor=#E05243;gradientColor=none;" vertex="1" parent="1">
          <mxGeometry x="245" y="270" width="65" height="73.5" as="geometry" />
        </mxCell>
        <mxCell id="lwLpcTtRz4geDCTmb4do-35" value="" style="edgeStyle=orthogonalEdgeStyle;rounded=0;orthogonalLoop=1;jettySize=auto;html=1;" edge="1" parent="1" source="lwLpcTtRz4geDCTmb4do-30" target="lwLpcTtRz4geDCTmb4do-34">
          <mxGeometry relative="1" as="geometry">
            <Array as="points">
              <mxPoint x="606" y="220" />
              <mxPoint x="606" y="220" />
            </Array>
          </mxGeometry>
        </mxCell>
        <mxCell id="lwLpcTtRz4geDCTmb4do-30" value="" style="outlineConnect=0;dashed=0;verticalLabelPosition=bottom;verticalAlign=top;align=center;html=1;shape=mxgraph.aws3.volume;fillColor=#E05243;gradientColor=none;" vertex="1" parent="1">
          <mxGeometry x="580" y="268.5" width="52.5" height="75" as="geometry" />
        </mxCell>
        <mxCell id="lwLpcTtRz4geDCTmb4do-31" value="" style="endArrow=classic;html=1;rounded=0;" edge="1" parent="1">
          <mxGeometry width="50" height="50" relative="1" as="geometry">
            <mxPoint x="310" y="310" as="sourcePoint" />
            <mxPoint x="580" y="310" as="targetPoint" />
            <Array as="points">
              <mxPoint x="320" y="310" />
            </Array>
          </mxGeometry>
        </mxCell>
        <mxCell id="lwLpcTtRz4geDCTmb4do-32" value="Snapshot" style="text;html=1;align=center;verticalAlign=middle;resizable=0;points=[];autosize=1;strokeColor=none;fillColor=none;" vertex="1" parent="1">
          <mxGeometry x="245" y="338" width="70" height="30" as="geometry" />
        </mxCell>
        <mxCell id="lwLpcTtRz4geDCTmb4do-33" value="volume" style="text;html=1;align=center;verticalAlign=middle;resizable=0;points=[];autosize=1;strokeColor=none;fillColor=none;" vertex="1" parent="1">
          <mxGeometry x="572.5" y="338" width="60" height="30" as="geometry" />
        </mxCell>
        <mxCell id="lwLpcTtRz4geDCTmb4do-34" value="&lt;b&gt;Server&lt;/b&gt;" style="whiteSpace=wrap;html=1;aspect=fixed;strokeColor=light-dark(#000000,#66B2FF);fillColor=light-dark(#FFFFFF,#00994D);" vertex="1" parent="1">
          <mxGeometry x="540" y="90" width="110" height="110" as="geometry" />
        </mxCell>
        <mxCell id="lwLpcTtRz4geDCTmb4do-41" value="Us-east-1" style="text;html=1;align=center;verticalAlign=middle;resizable=0;points=[];autosize=1;strokeColor=none;fillColor=none;" vertex="1" parent="1">
          <mxGeometry x="210" y="-2" width="80" height="30" as="geometry" />
        </mxCell>
        <mxCell id="lwLpcTtRz4geDCTmb4do-42" value="mumbai" style="text;html=1;align=center;verticalAlign=middle;resizable=0;points=[];autosize=1;strokeColor=none;fillColor=none;" vertex="1" parent="1">
          <mxGeometry x="605" y="-2" width="70" height="30" as="geometry" />
        </mxCell>
      </root>
    </mxGraphModel>
  </diagram>
</mxfile>
